<svg width="120" height="120" viewBox="0 0 120 120" fill="black" xmlns="http://www.w3.org/2000/svg">
<path fill-rule="evenodd" clip-rule="evenodd" d="M19 39.0244C19 39.8942 19.1103 40.737 19.3171 41.5343C19.5302 41.4569 19.7601 41.4146 20 41.4146H100C100.24 41.4146 100.47 41.4569 100.683 41.5343C100.89 40.737 101 39.8942 101 39.0244V8.78049C101 4.10526 97.7305 0 93.3333 0H26.6667C22.2695 0 19 4.10526 19 8.78049V39.0244ZM19 47.8049C19 46.935 19.1103 46.0922 19.3171 45.295C19.5302 45.3724 19.7601 45.4146 20 45.4146H100C100.24 45.4146 100.47 45.3724 100.683 45.295C100.89 46.0922 101 46.935 101 47.8049V107.317C101 111.992 97.7305 116.098 93.3333 116.098H92.937C92.9781 116.253 93 116.417 93 116.585V118.049C93 119.126 92.1046 120 91 120C89.8954 120 89 119.126 89 118.049V116.585C89 116.417 89.0219 116.253 89.063 116.098H32.937C32.9781 116.253 33 116.417 33 116.585V118.049C33 119.126 32.1046 120 31 120C29.8954 120 29 119.126 29 118.049V116.585C29 116.417 29.0219 116.253 29.063 116.098H26.6667C22.2695 116.098 19 111.992 19 107.317V47.8049ZM30 8.78049C30 7.67592 29.1046 6.78049 28 6.78049C26.8954 6.78049 26 7.67592 26 8.78049V33.6585C26 34.7631 26.8954 35.6585 28 35.6585C29.1046 35.6585 30 34.7631 30 33.6585V8.78049ZM32 55.6585C32 54.554 31.1046 53.6585 30 53.6585C28.8954 53.6585 28 54.554 28 55.6585V100.439C28 101.544 28.8954 102.439 30 102.439C31.1046 102.439 32 101.544 32 100.439V55.6585Z"/>
</svg>
