<svg width="120" height="122" viewBox="0 0 120 122" fill="black" xmlns="http://www.w3.org/2000/svg">
<path fill-rule="evenodd" clip-rule="evenodd" d="M26.6667 1C20.9283 1 17 6.1165 17 11.488V40.7246C17 42.2222 17.2897 43.6607 17.8219 44.9687C17.2897 46.2766 17 47.7152 17 49.2127V106.743C17 112.114 20.9283 117.231 26.6667 117.231H27.0016C27.0644 119.427 28.9383 121.003 31 121.003C33.0617 121.003 34.9356 119.427 34.9984 117.231H87.0016C87.0644 119.427 88.9383 121.003 91 121.003C93.0972 121.003 95 119.372 95 117.117V117.082C99.8188 116.204 103 111.577 103 106.743V49.2127C103 47.7152 102.71 46.2766 102.178 44.9687C102.71 43.6607 103 42.2222 103 40.7246V11.488C103 6.1165 99.0717 1 93.3333 1H26.6667ZM21 49.2127C21 48.4217 21.1233 47.6662 21.3478 46.9687H98.6522C98.8767 47.6662 99 48.4217 99 49.2127V106.743C99 110.41 96.3893 113.231 93.3333 113.231H92.937H91.6819H90.3181H89.063H32.937H31.6819H30.3181H29.063H26.6667C23.6107 113.231 21 110.41 21 106.743V49.2127ZM99 40.7246C99 41.5156 98.8767 42.2712 98.6522 42.9687H21.3478C21.1233 42.2712 21 41.5157 21 40.7246V11.488C21 7.82057 23.6107 5 26.6667 5H93.3333C96.3893 5 99 7.82057 99 11.488V40.7246ZM28 9.48804C29.1046 9.48804 30 10.3835 30 11.488V35.5375C30 36.6421 29.1046 37.5375 28 37.5375C26.8954 37.5375 26 36.6421 26 35.5375V11.488C26 10.3835 26.8954 9.48804 28 9.48804ZM30 54.8714C31.1046 54.8714 32 55.7668 32 56.8714V100.027C32 101.132 31.1046 102.027 30 102.027C28.8954 102.027 28 101.132 28 100.027V56.8714C28 55.7668 28.8954 54.8714 30 54.8714Z"/>
</svg>
