<svg width="121" height="118" viewBox="0 0 121 118" fill="black" xmlns="http://www.w3.org/2000/svg">

<path fill-rule="evenodd" clip-rule="evenodd" d="M8 22C3.58172 22 0 25.5817 0 30V89C0 93.4183 3.58172 97 8 97H113C117.418 97 121 93.4183 121 89V30C121 25.5817 117.418 22 113 22H8ZM16 29C11.5817 29 8 32.5817 8 37V82C8 86.4183 11.5817 90 16 90H88.1308C94.0596 90 97.8907 83.772 95.8458 78.207C90.9248 64.8152 90.8597 54.2325 95.7799 40.8485C97.8321 35.2659 94.0004 29 88.0526 29H16ZM115.5 36.6694C115.5 40.5354 112.366 43.6694 108.5 43.6694C104.634 43.6694 101.5 40.5354 101.5 36.6694C101.5 32.8034 104.634 29.6694 108.5 29.6694C112.366 29.6694 115.5 32.8034 115.5 36.6694ZM105 50C103.895 50 103 50.8954 103 52C103 53.1046 103.895 54 105 54H113C114.105 54 115 53.1046 115 52C115 50.8954 114.105 50 113 50H105ZM103 60C103 58.8954 103.895 58 105 58H113C114.105 58 115 58.8954 115 60C115 61.1046 114.105 62 113 62H105C103.895 62 103 61.1046 103 60ZM106 68C104.343 68 103 69.3431 103 71V84C103 85.6569 104.343 87 106 87H112C113.657 87 115 85.6569 115 84V71C115 69.3431 113.657 68 112 68H106Z"/>
<path d="M95.8458 78.207L96.7844 77.8621L95.8458 78.207ZM95.7799 40.8485L94.8413 40.5034L95.7799 40.8485ZM1 30C1 26.134 4.13401 23 8 23V21C3.02944 21 -1 25.0294 -1 30H1ZM1 89V30H-1V89H1ZM8 96C4.134 96 1 92.866 1 89H-1C-1 93.9706 3.02943 98 8 98V96ZM113 96H8V98H113V96ZM120 89C120 92.866 116.866 96 113 96V98C117.971 98 122 93.9706 122 89H120ZM120 30V89H122V30H120ZM113 23C116.866 23 120 26.134 120 30H122C122 25.0294 117.971 21 113 21V23ZM8 23H113V21H8V23ZM9 37C9 33.134 12.134 30 16 30V28C11.0294 28 7 32.0294 7 37H9ZM9 82V37H7V82H9ZM16 89C12.134 89 9 85.866 9 82H7C7 86.9706 11.0294 91 16 91V89ZM88.1308 89H16V91H88.1308V89ZM94.9071 78.5519C96.7444 83.5518 93.2735 89 88.1308 89V91C94.8458 91 99.037 83.9922 96.7844 77.8621L94.9071 78.5519ZM94.8413 40.5034C89.8379 54.1139 89.9057 64.9412 94.9071 78.5519L96.7844 77.8621C91.9439 64.6892 91.8815 54.3511 96.7185 41.1935L94.8413 40.5034ZM88.0526 30C93.2102 30 96.6872 35.4821 94.8413 40.5034L96.7185 41.1935C98.977 35.0498 94.7907 28 88.0526 28V30ZM16 30H88.0526V28H16V30ZM108.5 44.6694C112.918 44.6694 116.5 41.0877 116.5 36.6694H114.5C114.5 39.9831 111.814 42.6694 108.5 42.6694V44.6694ZM100.5 36.6694C100.5 41.0877 104.082 44.6694 108.5 44.6694V42.6694C105.186 42.6694 102.5 39.9831 102.5 36.6694H100.5ZM108.5 28.6694C104.082 28.6694 100.5 32.2511 100.5 36.6694H102.5C102.5 33.3557 105.186 30.6694 108.5 30.6694V28.6694ZM116.5 36.6694C116.5 32.2511 112.918 28.6694 108.5 28.6694V30.6694C111.814 30.6694 114.5 33.3557 114.5 36.6694H116.5ZM104 52C104 51.4477 104.448 51 105 51V49C103.343 49 102 50.3431 102 52H104ZM105 53C104.448 53 104 52.5523 104 52H102C102 53.6569 103.343 55 105 55V53ZM113 53H105V55H113V53ZM114 52C114 52.5523 113.552 53 113 53V55C114.657 55 116 53.6569 116 52H114ZM113 51C113.552 51 114 51.4477 114 52H116C116 50.3431 114.657 49 113 49V51ZM105 51H113V49H105V51ZM105 57C103.343 57 102 58.3431 102 60H104C104 59.4477 104.448 59 105 59V57ZM113 57H105V59H113V57ZM116 60C116 58.3431 114.657 57 113 57V59C113.552 59 114 59.4477 114 60H116ZM113 63C114.657 63 116 61.6569 116 60H114C114 60.5523 113.552 61 113 61V63ZM105 63H113V61H105V63ZM102 60C102 61.6569 103.343 63 105 63V61C104.448 61 104 60.5523 104 60H102ZM104 71C104 69.8954 104.895 69 106 69V67C103.791 67 102 68.7909 102 71H104ZM104 84V71H102V84H104ZM106 86C104.895 86 104 85.1046 104 84H102C102 86.2091 103.791 88 106 88V86ZM112 86H106V88H112V86ZM114 84C114 85.1046 113.105 86 112 86V88C114.209 88 116 86.2091 116 84H114ZM114 71V84H116V71H114ZM112 69C113.105 69 114 69.8954 114 71H116C116 68.7909 114.209 67 112 67V69ZM106 69H112V67H106V69Z" fill="black" mask="url(#path-1-inside-1_7_6)"/>
</svg>
