<svg width="121" height="118" viewBox="0 0 121 118" fill="black" xmlns="http://www.w3.org/2000/svg">
<path fill-rule="evenodd" clip-rule="evenodd" d="M8 26H113C115.209 26 117 27.7909 117 30V89C117 91.2091 115.209 93 113 93H8C5.79086 93 4 91.2091 4 89V30C4 27.7909 5.79086 26 8 26ZM0 30C0 25.5817 3.58172 22 8 22H113C117.418 22 121 25.5817 121 30V89C121 93.4183 117.418 97 113 97H8C3.58172 97 0 93.4183 0 89V30ZM16 33H88.0526C90.8395 33 93.2526 36.1305 92.0255 39.4683C86.7724 53.758 86.8484 65.319 92.0912 79.5866C93.3055 82.8911 90.915 86 88.1308 86H16C13.7909 86 12 84.2091 12 82V37C12 34.7909 13.7909 33 16 33ZM8 37C8 32.5817 11.5817 29 16 29H88.0526C94.0004 29 97.8321 35.2659 95.7799 40.8485C90.8597 54.2325 90.9248 64.8152 95.8458 78.207C97.8907 83.772 94.0596 90 88.1308 90H16C11.5817 90 8 86.4183 8 82V37ZM108.5 39.6694C110.157 39.6694 111.5 38.3263 111.5 36.6694C111.5 35.0125 110.157 33.6694 108.5 33.6694C106.843 33.6694 105.5 35.0125 105.5 36.6694C105.5 38.3263 106.843 39.6694 108.5 39.6694ZM108.5 43.6694C112.366 43.6694 115.5 40.5354 115.5 36.6694C115.5 32.8034 112.366 29.6694 108.5 29.6694C104.634 29.6694 101.5 32.8034 101.5 36.6694C101.5 40.5354 104.634 43.6694 108.5 43.6694ZM105 50C103.895 50 103 50.8954 103 52C103 53.1046 103.895 54 105 54H113C114.105 54 115 53.1046 115 52C115 50.8954 114.105 50 113 50H105ZM103 60C103 58.8954 103.895 58 105 58H113C114.105 58 115 58.8954 115 60C115 61.1046 114.105 62 113 62H105C103.895 62 103 61.1046 103 60ZM107 83V72H111V83H107ZM103 71C103 69.3431 104.343 68 106 68H112C113.657 68 115 69.3431 115 71V84C115 85.6569 113.657 87 112 87H106C104.343 87 103 85.6569 103 84V71Z"/>
</svg>
