<svg width="120" height="120" viewBox="0 0 120 120" fill="black" xmlns="http://www.w3.org/2000/svg">
<path fill-rule="evenodd" clip-rule="evenodd" d="M102 5H26.5H18C15.7909 5 14 6.79086 14 9V20.5H106V9C106 6.79086 104.209 5 102 5ZM26.5 5C22.3579 5 19 8.35786 19 12.5C19 16.6421 22.3579 20 26.5 20C30.6421 20 34 16.6421 34 12.5C34 8.35786 30.6421 5 26.5 5ZM10 20.5V24.5V110C10 114.418 13.5817 118 18 118H102C106.418 118 110 114.418 110 110V24.5V20.5V9C110 4.58172 106.418 1 102 1H18C13.5817 1 10 4.58172 10 9V20.5ZM106 110V24.5H14V110C14 112.209 15.7909 114 18 114H102C104.209 114 106 112.209 106 110ZM85.1341 69.96L93.9771 72.7392C93.3138 54.5456 78.3556 40 60 40C41.6444 40 26.6862 54.5456 26.0229 72.7392L34.3679 70.1165C40.0232 68.3391 46.1944 69.5689 50.7364 73.3783C55.3778 77.2711 62.0567 77.5563 67.013 74.0734L69.3882 72.4044C73.9707 69.1843 79.791 68.2807 85.1341 69.96ZM83.9348 73.776L93.878 76.901C92.4061 94.3208 77.8005 108 60 108C42.1995 108 27.5939 94.3208 26.122 76.901L35.5672 73.9325C39.92 72.5644 44.67 73.511 48.166 76.4431C54.1961 81.5006 62.8734 81.8712 69.3128 77.3462L71.688 75.6772C75.2522 73.1726 79.7791 72.4699 83.9348 73.776ZM62 10C60.8954 10 60 10.8954 60 12C60 13.1046 60.8954 14 62 14H71C72.1046 14 73 13.1046 73 12C73 10.8954 72.1046 10 71 10H62ZM75 12C75 10.8954 75.8954 10 77 10H86C87.1046 10 88 10.8954 88 12C88 13.1046 87.1046 14 86 14H77C75.8954 14 75 13.1046 75 12ZM92 10C90.8954 10 90 10.8954 90 12C90 13.1046 90.8954 14 92 14H101C102.105 14 103 13.1046 103 12C103 10.8954 102.105 10 101 10H92Z"/>
</svg>
