<svg width="120" height="120" viewBox="0 0 120 120" fill="black" xmlns="http://www.w3.org/2000/svg">
<path fill-rule="evenodd" clip-rule="evenodd" d="M110 25.5H10V21.5H110V25.5ZM83.8371 74.5956C79.745 73.3921 75.3275 74.1197 71.8376 76.5721L69.2729 78.3743C62.857 82.8827 54.2115 82.5135 48.2034 77.4744C44.6937 74.5308 39.9165 73.5997 35.5582 75.0097L27.3385 77.669L27.0383 77.7661H26.7228H26V73.7661H26.4074L34.3269 71.2039C39.9955 69.37 46.2089 70.5811 50.7738 74.4097C55.3932 78.2839 62.0403 78.5678 66.9731 75.1015L69.5378 73.2993C74.0248 70.1462 79.7045 69.2107 84.9658 70.7582L93.4539 73.2547H94V77.2547H93.1659H92.8778L92.6015 77.1734L83.8371 74.5956ZM18 2C13.5817 2 10 5.58172 10 10V111C10 115.418 13.5817 119 18 119H102C106.418 119 110 115.418 110 111V10C110 5.58172 106.418 2 102 2H18ZM60 109C78.7777 109 94 93.7777 94 75C94 56.2223 78.7777 41 60 41C41.2223 41 26 56.2223 26 75C26 93.7777 41.2223 109 60 109ZM34 13.5C34 17.6421 30.6421 21 26.5 21C22.3579 21 19 17.6421 19 13.5C19 9.35786 22.3579 6 26.5 6C30.6421 6 34 9.35786 34 13.5ZM62 11C60.8954 11 60 11.8954 60 13C60 14.1046 60.8954 15 62 15H71C72.1046 15 73 14.1046 73 13C73 11.8954 72.1046 11 71 11H62ZM75 13C75 11.8954 75.8954 11 77 11H86C87.1046 11 88 11.8954 88 13C88 14.1046 87.1046 15 86 15H77C75.8954 15 75 14.1046 75 13ZM92 11C90.8954 11 90 11.8954 90 13C90 14.1046 90.8954 15 92 15H101C102.105 15 103 14.1046 103 13C103 11.8954 102.105 11 101 11H92Z"/>
</svg>
